<?xml version="1.0" encoding="utf-8"?>
<!-- Generator: Adobe Illustrator 19.0.0, SVG Export Plug-In . SVG Version: 6.00 Build 0)  -->
<svg version="1.1" id="Capa_1" xmlns="http://www.w3.org/2000/svg" xmlns:xlink="http://www.w3.org/1999/xlink" x="0px" y="0px"
	 viewBox="0 0 453 127.5" style="enable-background:new 0 0 453 127.5;" xml:space="preserve">
<style type="text/css">
	.st0{fill:#FFFFFF;}
	.st1{fill:#BDBCBC;}
	.st2{fill:#C6C6C6;}
</style>
<g id="XMLID_12_">
	<g id="XMLID_16_">
		<path id="XMLID_18_" class="st0" d="M102.2,115.2V65.8h33.9v11.8h-20.3v8.2h16.6v11h-16.6v18.4H102.2z"/>
		<path id="XMLID_42_" class="st0" d="M163.1,115.6c-3.8,0-7.2-0.7-10.2-2.2c-3.1-1.4-5.7-3.3-7.9-5.7c-2.2-2.3-3.9-5-5.1-8
			c-1.2-3-1.8-6.1-1.8-9.3c0-3.2,0.6-6.4,1.9-9.4c1.3-3,3-5.7,5.3-8c2.2-2.3,4.9-4.1,8-5.5c3.1-1.4,6.5-2.1,10.1-2.1
			c3.8,0,7.2,0.7,10.2,2.2c3.1,1.4,5.7,3.3,7.9,5.7s3.9,5.1,5,8.1c1.2,3,1.8,6.1,1.8,9.3c0,3.2-0.6,6.4-1.9,9.4
			c-1.3,3-3,5.6-5.2,7.9c-2.2,2.3-4.9,4.1-8,5.5C170.1,114.9,166.7,115.6,163.1,115.6z M151.9,90.5c0,1.7,0.2,3.3,0.7,4.8
			c0.5,1.6,1.2,2.9,2.1,4.1c0.9,1.2,2.1,2.2,3.5,2.9c1.4,0.7,3.1,1.1,5,1.1c1.9,0,3.6-0.4,5.1-1.1c1.4-0.8,2.6-1.8,3.5-3
			c0.9-1.2,1.6-2.6,2-4.2c0.4-1.6,0.7-3.2,0.7-4.8c0-1.7-0.2-3.3-0.7-4.8c-0.5-1.6-1.2-2.9-2.1-4.1c-1-1.2-2.1-2.1-3.5-2.9
			c-1.4-0.7-3.1-1.1-5-1.1c-1.9,0-3.6,0.4-5,1.1c-1.4,0.7-2.6,1.7-3.5,3s-1.6,2.6-2.1,4.2C152.1,87.3,151.9,88.9,151.9,90.5z"/>
		<path id="XMLID_45_" class="st0" d="M216.3,115.6c-3.8,0-7.2-0.7-10.2-2.2c-3.1-1.4-5.7-3.3-7.9-5.7c-2.2-2.3-3.9-5-5.1-8
			c-1.2-3-1.8-6.1-1.8-9.3c0-3.2,0.6-6.4,1.9-9.4c1.3-3,3-5.7,5.3-8c2.2-2.3,4.9-4.1,8-5.5c3.1-1.4,6.5-2.1,10.1-2.1
			c3.8,0,7.2,0.7,10.2,2.2c3.1,1.4,5.7,3.3,7.9,5.7s3.9,5.1,5,8.1c1.2,3,1.8,6.1,1.8,9.3c0,3.2-0.6,6.4-1.9,9.4
			c-1.3,3-3,5.6-5.2,7.9c-2.2,2.3-4.9,4.1-8,5.5C223.3,114.9,219.9,115.6,216.3,115.6z M205.1,90.5c0,1.7,0.2,3.3,0.7,4.8
			c0.5,1.6,1.2,2.9,2.1,4.1c0.9,1.2,2.1,2.2,3.5,2.9c1.4,0.7,3.1,1.1,5,1.1c1.9,0,3.6-0.4,5.1-1.1s2.6-1.8,3.5-3
			c0.9-1.2,1.6-2.6,2-4.2c0.4-1.6,0.7-3.2,0.7-4.8c0-1.7-0.2-3.3-0.7-4.8c-0.5-1.6-1.2-2.9-2.1-4.1c-1-1.2-2.1-2.1-3.5-2.9
			c-1.4-0.7-3.1-1.1-5-1.1c-1.9,0-3.6,0.4-5,1.1c-1.4,0.7-2.6,1.7-3.5,3c-0.9,1.2-1.6,2.6-2.1,4.2C205.3,87.3,205.1,88.9,205.1,90.5
			z"/>
		<path id="XMLID_48_" class="st0" d="M247.2,115.2V65.8h19c4.1,0,7.7,0.6,10.8,1.9c3.1,1.3,5.7,3.1,7.8,5.3
			c2.1,2.2,3.7,4.8,4.7,7.8c1.1,3,1.6,6.2,1.6,9.6c0,3.8-0.6,7.2-1.8,10.2c-1.2,3-2.9,5.6-5,7.8c-2.2,2.2-4.8,3.8-7.9,5
			c-3.1,1.2-6.5,1.8-10.2,1.8H247.2z M277.4,90.4c0-1.9-0.3-3.6-0.8-5.2c-0.5-1.6-1.2-2.9-2.2-4c-1-1.1-2.1-2-3.5-2.6
			c-1.4-0.6-2.9-0.9-4.7-0.9h-5.4v25.7h5.4c1.8,0,3.3-0.3,4.7-1c1.4-0.6,2.6-1.6,3.5-2.7c0.9-1.2,1.7-2.5,2.2-4.1
			C277.1,94,277.4,92.2,277.4,90.4z"/>
		<path id="XMLID_51_" class="st0" d="M344,115.2V72.4l-19.5,33.3h-2.2l-19.5-33.3v42.7h-3.5V65.8h3.5l20.6,35.3L344,65.8h3.5v49.4
			H344z"/>
		<path id="XMLID_53_" class="st0" d="M376,65.8h3.1l20.9,49.4h-3.8l-6.9-16.3h-23.6l-6.9,16.3H355L376,65.8z M388.3,96l-10.8-25.9
			l-11,25.9H388.3z"/>
		<path id="XMLID_56_" class="st0" d="M407.5,115.2V65.8h20.3c2.1,0,4,0.4,5.8,1.3c1.8,0.9,3.3,2.1,4.6,3.5c1.3,1.5,2.3,3.1,3,4.9
			c0.7,1.8,1.1,3.7,1.1,5.5c0,2-0.3,3.9-1,5.8c-0.7,1.9-1.6,3.5-2.9,4.9c-1.2,1.4-2.7,2.6-4.4,3.4c-1.7,0.9-3.6,1.3-5.7,1.3H411
			v18.6H407.5z M411,93.2h17c1.6,0,3.1-0.3,4.4-1c1.3-0.7,2.4-1.6,3.3-2.7s1.6-2.4,2.1-3.9c0.5-1.5,0.7-3,0.7-4.6
			c0-1.6-0.3-3.2-0.9-4.6c-0.6-1.5-1.4-2.7-2.4-3.9c-1-1.1-2.2-2-3.5-2.6c-1.3-0.6-2.7-1-4.2-1H411V93.2z"/>
	</g>
	<g id="XMLID_85_">
		<path id="XMLID_89_" class="st0" d="M53.4,16.4c-20,0-36.2,16.2-36.2,36.2c0,17.2,26.7,52.5,34.2,62.1c1,1.3,2.9,1.3,3.9,0
			c7.5-9.6,34.2-44.9,34.2-62.1C89.5,32.6,73.3,16.4,53.4,16.4z M53.4,72.5c-11,0-19.9-8.9-19.9-19.9s8.9-19.9,19.9-19.9
			c11,0,19.9,8.9,19.9,19.9S64.4,72.5,53.4,72.5z"/>
		<g id="XMLID_94_">
			<path id="XMLID_11_" class="st0" d="M68.1,58.6c-2.1,2.1-6.4,1.1-9.7-2.2c-2-2-3.1-4.3-3.3-6.3c-0.2-2.4-1.2-4.6-3-6.3l-8.8-8.3
				c0.6-0.4,1.3-0.7,2-1l7.9,8.3c1.7,1.7,3.9,2.8,6.3,3c2,0.2,4.4,1.3,6.3,3.3C69.1,52.2,70.1,56.5,68.1,58.6z"/>
			<path id="XMLID_10_" class="st0" d="M63.4,69.8c-0.7,0.4-1.3,0.7-2,1L53,61.9c-1.4-1.4-3.3-2.2-5.3-2.2c-1.1,0-2.3-0.4-3.1-1.3
				l-8.6-8.6c-0.3-0.3-0.3-0.7,0-1c0.3-0.2,0.7-0.2,0.9,0l6.7,6.7c0.1,0.1,0.2,0.2,0.4,0.2c0.1,0,0.3-0.1,0.4-0.2
				c0.2-0.2,0.2-0.6,0-0.8l-6.7-6.7c-0.3-0.3-0.3-0.7,0-0.9c0.3-0.2,0.7-0.2,0.9,0l6.7,6.6c0.1,0.1,0.2,0.2,0.4,0.2
				c0.1,0,0.3,0,0.4-0.2c0.2-0.2,0.2-0.6,0-0.8l-6.7-6.7c-0.3-0.3-0.3-0.7,0-0.9c0.3-0.2,0.7-0.2,0.9,0l6.7,6.6
				c0.2,0.2,0.6,0.2,0.8,0c0.2-0.2,0.2-0.6,0-0.8l-6.7-6.6c-0.2-0.3-0.3-0.7,0-0.9c0.2-0.3,0.7-0.3,0.9,0l8.6,8.6
				c0.9,0.9,1.3,2,1.3,3.2c-0.1,2,0.7,3.9,2.2,5.3L63.4,69.8z"/>
		</g>
		<path id="XMLID_9_" class="st1" d="M68.1,61c-2.1,2.1-6.4,1-9.7-2.2c-2-2-3.1-4.3-3.3-6.3c-0.2-2.4-1.2-4.6-3-6.3l-10.3-9.8
			c0.5-0.3,1-0.7,1.5-1l6.8,6.4l3.1,3.2c0.1,0.1,0.1,0.1,0.2,0.2c1,1.4,1.6,3.1,1.7,4.8c0.2,2,1.3,4.4,3.3,6.3
			c3.3,3.3,7.6,4.3,9.7,2.2c0.5-0.5,0.8-1.1,0.9-1.7C69.3,58.5,69,60,68.1,61z"/>
		<g id="XMLID_88_">
			<path id="XMLID_8_" class="st1" d="M37.7,49.6C37.6,49.7,37.6,49.7,37.7,49.6l5.9,6c0.2,0.2,0.6,0.2,0.8,0c0,0,0-0.1,0.1-0.2
				l-5.8-5.8C38.3,49.4,37.9,49.4,37.7,49.6z"/>
			<path id="XMLID_7_" class="st1" d="M39.4,47.9C39.3,47.9,39.3,48,39.4,47.9l5.9,6c0.2,0.2,0.6,0.2,0.8,0l0,0c0,0,0-0.1,0.1-0.2
				L40.3,48C40,47.7,39.6,47.7,39.4,47.9z"/>
			<path id="XMLID_6_" class="st1" d="M41,46.2C41,46.3,41,46.3,41,46.2l5.9,6c0.2,0.2,0.6,0.2,0.8,0c0,0,0-0.1,0.1-0.2L42,46.2
				C41.7,46,41.3,46,41,46.2z"/>
			<path id="XMLID_5_" class="st1" d="M61.4,70.8c-0.6,0.2-1.1,0.5-1.7,0.7L53,64.3c-1.4-1.4-3.3-2.3-5.3-2.2
				c-1.1,0-2.3-0.4-3.1-1.2l-1.2-1.2l-7.3-7.3c-0.3-0.3-0.3-0.7,0-0.9c0.3-0.2,0.7-0.2,0.9,0l6.7,6.7c0.2,0.2,0.4,0.2,0.6,0.1
				l0.3,0.3c0.9,0.9,2,1.3,3.1,1.3c2-0.1,3.9,0.7,5.3,2.1c0.3,0.5,0.7,1,1.1,1.4l2.4,2.2L61.4,70.8z"/>
		</g>
		<path id="XMLID_4_" class="st2" d="M71.9,45.4c4,10.3-1.2,21.8-11.4,25.7c10.3-4,18.7-16.8,14.8-27C71.3,33.9,56.5,30,46.2,34
			C56.5,30,68,35.2,71.9,45.4z"/>
		<path id="XMLID_3_" class="st2" d="M34.8,59.7c-4-10.3,1.2-21.8,11.4-25.7c-10.3,4-18.7,16.8-14.8,27c4,10.3,18.8,14.1,29.1,10.1
			C50.2,75.1,38.7,70,34.8,59.7z"/>
	</g>
</g>
</svg>
