<?xml version="1.0" encoding="utf-8"?>
<!-- Generator: Adobe Illustrator 19.0.0, SVG Export Plug-In . SVG Version: 6.00 Build 0)  -->
<svg version="1.1" id="Capa_1" xmlns="http://www.w3.org/2000/svg" xmlns:xlink="http://www.w3.org/1999/xlink" x="0px" y="0px"
	 viewBox="0 0 171 153" style="enable-background:new 0 0 171 153;" xml:space="preserve">
<style type="text/css">
	.st0{fill:#424242;}
	.st1{fill:#E53935;}
	.st2{fill:#FFFFFF;}
	.st3{fill:#EA5351;}
	.st4{fill:#BDBCBC;}
	.st5{fill:#C72828;}
</style>
<g id="XMLID_16_">
	<path id="XMLID_18_" class="st0" d="M6.7,146.6V124h15.5v5.4h-9.3v3.8h7.6v5h-7.6v8.4H6.7z"/>
	<path id="XMLID_42_" class="st0" d="M34.6,146.8c-1.7,0-3.3-0.3-4.7-1c-1.4-0.7-2.6-1.5-3.6-2.6c-1-1.1-1.8-2.3-2.3-3.7
		c-0.6-1.4-0.8-2.8-0.8-4.3c0-1.5,0.3-2.9,0.9-4.3s1.4-2.6,2.4-3.6c1-1.1,2.2-1.9,3.7-2.5c1.4-0.6,3-0.9,4.6-0.9
		c1.7,0,3.3,0.3,4.7,1c1.4,0.7,2.6,1.5,3.6,2.6s1.8,2.3,2.3,3.7c0.5,1.4,0.8,2.8,0.8,4.2c0,1.5-0.3,2.9-0.9,4.3
		c-0.6,1.4-1.4,2.6-2.4,3.6c-1,1.1-2.2,1.9-3.6,2.5C37.8,146.5,36.2,146.8,34.6,146.8z M29.4,135.3c0,0.8,0.1,1.5,0.3,2.2
		c0.2,0.7,0.5,1.3,1,1.9c0.4,0.6,1,1,1.6,1.3c0.6,0.3,1.4,0.5,2.3,0.5s1.7-0.2,2.3-0.5c0.7-0.4,1.2-0.8,1.6-1.4
		c0.4-0.6,0.7-1.2,0.9-1.9c0.2-0.7,0.3-1.5,0.3-2.2c0-0.8-0.1-1.5-0.3-2.2c-0.2-0.7-0.5-1.3-1-1.9c-0.4-0.5-1-1-1.6-1.3
		c-0.6-0.3-1.4-0.5-2.3-0.5c-0.9,0-1.7,0.2-2.3,0.5c-0.6,0.3-1.2,0.8-1.6,1.4c-0.4,0.6-0.7,1.2-0.9,1.9
		C29.5,133.9,29.4,134.6,29.4,135.3z"/>
	<path id="XMLID_45_" class="st0" d="M58.9,146.8c-1.7,0-3.3-0.3-4.7-1c-1.4-0.7-2.6-1.5-3.6-2.6c-1-1.1-1.8-2.3-2.3-3.7
		c-0.6-1.4-0.8-2.8-0.8-4.3c0-1.5,0.3-2.9,0.9-4.3s1.4-2.6,2.4-3.6c1-1.1,2.2-1.9,3.7-2.5c1.4-0.6,3-0.9,4.6-0.9
		c1.7,0,3.3,0.3,4.7,1c1.4,0.7,2.6,1.5,3.6,2.6s1.8,2.3,2.3,3.7c0.5,1.4,0.8,2.8,0.8,4.2c0,1.5-0.3,2.9-0.9,4.3
		c-0.6,1.4-1.4,2.6-2.4,3.6c-1,1.1-2.2,1.9-3.6,2.5C62.1,146.5,60.6,146.8,58.9,146.8z M53.8,135.3c0,0.8,0.1,1.5,0.3,2.2
		c0.2,0.7,0.5,1.3,1,1.9c0.4,0.6,1,1,1.6,1.3c0.6,0.3,1.4,0.5,2.3,0.5c0.9,0,1.7-0.2,2.3-0.5c0.7-0.4,1.2-0.8,1.6-1.4
		c0.4-0.6,0.7-1.2,0.9-1.9c0.2-0.7,0.3-1.5,0.3-2.2c0-0.8-0.1-1.5-0.3-2.2c-0.2-0.7-0.5-1.3-1-1.9c-0.4-0.5-1-1-1.6-1.3
		c-0.6-0.3-1.4-0.5-2.3-0.5c-0.9,0-1.7,0.2-2.3,0.5c-0.6,0.3-1.2,0.8-1.6,1.4c-0.4,0.6-0.7,1.2-0.9,1.9
		C53.9,133.9,53.8,134.6,53.8,135.3z"/>
	<path id="XMLID_48_" class="st0" d="M73.1,146.6V124h8.7c1.9,0,3.5,0.3,4.9,0.9c1.4,0.6,2.6,1.4,3.6,2.4c1,1,1.7,2.2,2.2,3.6
		c0.5,1.4,0.7,2.8,0.7,4.4c0,1.7-0.3,3.3-0.8,4.7c-0.5,1.4-1.3,2.6-2.3,3.6c-1,1-2.2,1.8-3.6,2.3c-1.4,0.5-3,0.8-4.7,0.8H73.1z
		 M86.9,135.3c0-0.9-0.1-1.7-0.4-2.4c-0.2-0.7-0.6-1.3-1-1.8c-0.4-0.5-1-0.9-1.6-1.2c-0.6-0.3-1.3-0.4-2.1-0.4h-2.5v11.8h2.5
		c0.8,0,1.5-0.1,2.2-0.4c0.6-0.3,1.2-0.7,1.6-1.2c0.4-0.5,0.8-1.2,1-1.9C86.8,136.9,86.9,136.1,86.9,135.3z"/>
	<path id="XMLID_51_" class="st0" d="M117.4,146.6V127l-8.9,15.3h-1L98.5,127v19.5h-1.6V124h1.6l9.4,16.2l9.4-16.2h1.6v22.6H117.4z"
		/>
	<path id="XMLID_53_" class="st0" d="M132,124h1.4l9.6,22.6h-1.7l-3.2-7.4h-10.8l-3.2,7.4h-1.8L132,124z M137.7,137.8l-4.9-11.8
		l-5,11.8H137.7z"/>
	<path id="XMLID_56_" class="st0" d="M146.4,146.6V124h9.3c1,0,1.8,0.2,2.6,0.6c0.8,0.4,1.5,0.9,2.1,1.6c0.6,0.7,1,1.4,1.4,2.3
		c0.3,0.8,0.5,1.7,0.5,2.5c0,0.9-0.2,1.8-0.5,2.6c-0.3,0.8-0.7,1.6-1.3,2.3c-0.6,0.7-1.2,1.2-2,1.6c-0.8,0.4-1.7,0.6-2.6,0.6H148
		v8.5H146.4z M148,136.6h7.8c0.7,0,1.4-0.2,2-0.5c0.6-0.3,1.1-0.7,1.5-1.2s0.7-1.1,1-1.8c0.2-0.7,0.3-1.4,0.3-2.1
		c0-0.7-0.1-1.4-0.4-2.1c-0.3-0.7-0.6-1.3-1.1-1.8c-0.5-0.5-1-0.9-1.6-1.2c-0.6-0.3-1.2-0.4-1.9-0.4H148V136.6z"/>
</g>
<g>
	<path id="XMLID_13_" class="st1" d="M84.5,8.4c-20,0-36.2,16.2-36.2,36.2c0,17.2,26.7,52.5,34.2,62.1c1,1.3,2.9,1.3,3.9,0
		c7.5-9.6,34.2-44.9,34.2-62.1C120.7,24.6,104.5,8.4,84.5,8.4z"/>
	<circle id="XMLID_12_" class="st2" cx="84.5" cy="44.5" r="19.9"/>
	<g>
		<path id="XMLID_11_" class="st3" d="M99.2,50.5c-2.1,2.1-6.4,1.1-9.7-2.2c-2-2-3.1-4.3-3.3-6.3c-0.2-2.4-1.2-4.6-3-6.3l-8.8-8.3
			c0.6-0.4,1.3-0.7,2-1l7.9,8.3c1.7,1.7,3.9,2.8,6.3,3c2,0.2,4.4,1.3,6.3,3.3C100.3,44.1,101.3,48.5,99.2,50.5z"/>
		<path id="XMLID_10_" class="st3" d="M94.6,61.7c-0.7,0.4-1.3,0.7-2,1l-8.4-8.9c-1.4-1.4-3.3-2.2-5.3-2.2c-1.1,0-2.3-0.4-3.1-1.3
			l-8.6-8.6c-0.3-0.3-0.3-0.7,0-1c0.3-0.2,0.7-0.2,0.9,0l6.7,6.7c0.1,0.1,0.2,0.2,0.4,0.2c0.1,0,0.3-0.1,0.4-0.2
			c0.2-0.2,0.2-0.6,0-0.8l-6.7-6.7c-0.3-0.3-0.3-0.7,0-0.9c0.3-0.2,0.7-0.2,0.9,0l6.7,6.6c0.1,0.1,0.2,0.2,0.4,0.2s0.3,0,0.4-0.2
			c0.2-0.2,0.2-0.6,0-0.8l-6.7-6.7c-0.3-0.3-0.3-0.7,0-0.9c0.3-0.2,0.7-0.2,0.9,0l6.7,6.6c0.2,0.2,0.6,0.2,0.8,0
			c0.2-0.2,0.2-0.6,0-0.8l-6.7-6.6c-0.2-0.3-0.3-0.7,0-0.9c0.2-0.3,0.7-0.3,0.9,0l8.6,8.6c0.9,0.9,1.3,2,1.3,3.2
			c-0.1,2,0.7,3.9,2.2,5.3L94.6,61.7z"/>
	</g>
	<path id="XMLID_9_" class="st4" d="M99.2,53c-2.1,2.1-6.4,1-9.7-2.2c-2-2-3.1-4.3-3.3-6.3c-0.2-2.4-1.2-4.6-3-6.3L73,28.3
		c0.5-0.3,1-0.7,1.5-1l6.8,6.4l3.1,3.2c0.1,0.1,0.1,0.1,0.2,0.2c1,1.4,1.6,3.1,1.7,4.8c0.2,2,1.3,4.4,3.3,6.3
		c3.3,3.3,7.6,4.3,9.7,2.2c0.5-0.5,0.8-1.1,0.9-1.7C100.5,50.5,100.2,52,99.2,53z"/>
	<g>
		<path id="XMLID_8_" class="st4" d="M68.8,41.6C68.8,41.6,68.8,41.6,68.8,41.6l5.9,6c0.2,0.2,0.6,0.2,0.8,0c0,0,0-0.1,0.1-0.2
			l-5.8-5.8C69.5,41.4,69.1,41.4,68.8,41.6z"/>
		<path id="XMLID_7_" class="st4" d="M70.5,39.9C70.5,39.9,70.5,39.9,70.5,39.9l5.9,6c0.2,0.2,0.6,0.2,0.8,0l0,0c0,0,0-0.1,0.1-0.2
			l-5.8-5.8C71.2,39.7,70.8,39.6,70.5,39.9z"/>
		<path id="XMLID_6_" class="st4" d="M72.2,38.2C72.2,38.2,72.2,38.2,72.2,38.2l5.9,6c0.2,0.2,0.6,0.2,0.8,0c0,0,0-0.1,0.1-0.2
			l-5.8-5.8C72.9,37.9,72.5,37.9,72.2,38.2z"/>
		<path id="XMLID_5_" class="st4" d="M92.6,62.8c-0.6,0.2-1.1,0.5-1.7,0.7l-6.8-7.1c-1.4-1.4-3.3-2.3-5.3-2.2
			c-1.1,0-2.3-0.4-3.1-1.2l-1.2-1.2l-7.3-7.3c-0.3-0.3-0.3-0.7,0-0.9c0.3-0.2,0.7-0.2,0.9,0l6.7,6.7c0.2,0.2,0.4,0.2,0.6,0.1
			l0.3,0.3c0.9,0.9,2,1.3,3.1,1.3c2-0.1,3.9,0.7,5.3,2.1c0.3,0.5,0.7,1,1.1,1.4l2.4,2.2L92.6,62.8z"/>
	</g>
	<path id="XMLID_4_" class="st5" d="M103.1,37.4c4,10.3-1.2,21.8-11.4,25.7c10.3-4,18.7-16.8,14.8-27c-4-10.3-18.8-14.1-29.1-10.1
		C87.6,22,99.2,27.1,103.1,37.4z"/>
	<path id="XMLID_3_" class="st5" d="M65.9,51.7c-4-10.3,1.2-21.8,11.4-25.7c-10.3,4-18.7,16.8-14.8,27c4,10.3,18.8,14.1,29.1,10.1
		C81.4,67.1,69.9,62,65.9,51.7z"/>
</g>
</svg>
